<?xml version="1.0" encoding="UTF-8" standalone="no"?>
<!-- Created with Inkscape (http://www.inkscape.org/) -->

<svg
   xmlns:dc="http://purl.org/dc/elements/1.1/"
   xmlns:cc="http://creativecommons.org/ns#"
   xmlns:rdf="http://www.w3.org/1999/02/22-rdf-syntax-ns#"
   xmlns:svg="http://www.w3.org/2000/svg"
   xmlns="http://www.w3.org/2000/svg"
   xmlns:sodipodi="http://sodipodi.sourceforge.net/DTD/sodipodi-0.dtd"
   xmlns:inkscape="http://www.inkscape.org/namespaces/inkscape"
   width="620"
   height="620"
   viewBox="0 0 620 619.99999"
   id="svg2"
   version="1.1"
   inkscape:version="0.91 r13725"
   sodipodi:docname="icon.svg"
   inkscape:export-filename="/home/lod/git/pomisos/src/main/resources/icon_small.png"
   inkscape:export-xdpi="3.48"
   inkscape:export-ydpi="3.48">
  <defs
     id="defs4" />
  <sodipodi:namedview
     id="base"
     pagecolor="#ffffff"
     bordercolor="#666666"
     borderopacity="1.0"
     inkscape:pageopacity="0.0"
     inkscape:pageshadow="2"
     inkscape:zoom="0.24748738"
     inkscape:cx="469.42491"
     inkscape:cy="-398.58965"
     inkscape:document-units="px"
     inkscape:current-layer="layer1"
     showgrid="false"
     inkscape:window-width="1920"
     inkscape:window-height="1051"
     inkscape:window-x="0"
     inkscape:window-y="196"
     inkscape:window-maximized="1"
     fit-margin-top="0"
     fit-margin-left="0"
     fit-margin-right="0"
     fit-margin-bottom="0"
     units="px" />
  <metadata
     id="metadata7">
    <rdf:RDF>
      <cc:Work
         rdf:about="">
        <dc:format>image/svg+xml</dc:format>
        <dc:type
           rdf:resource="http://purl.org/dc/dcmitype/StillImage" />
        <dc:title />
      </cc:Work>
    </rdf:RDF>
  </metadata>
  <g
     inkscape:label="Layer 1"
     inkscape:groupmode="layer"
     id="layer1"
     transform="translate(-177.35715,-123.57652)">
    <path
       id="rect8072"
       style="opacity:1;fill:#b62525;fill-opacity:1;fill-rule:nonzero;stroke:#000000;stroke-width:11;stroke-linecap:round;stroke-linejoin:bevel;stroke-miterlimit:4;stroke-dasharray:none;stroke-dashoffset:0;stroke-opacity:1"
       d="m 662.43837,447.4251 0,210.79465 c 0,37.87465 -40.74062,68.3658 -91.34669,68.3658 l -167.46906,0 c -50.60607,0 -91.34669,-30.49115 -91.34669,-68.3658 l 0,-210.79465 c 0,-37.87465 63.61691,-69.37291 86.75721,-69.46777 23.1403,-0.0948 17.607,-22.93296 17.607,-51.30135 l 0,-91.74506 c 0,-28.36839 5.5333,-51.20649 12.4065,-51.20649 l 116.62101,0 c 6.8732,0 12.4065,22.8381 12.4065,51.20649 l 0,91.74506 c 0,28.36839 -5.5333,51.20649 18.27984,52.30847 23.81313,1.10198 86.08438,30.586 86.08438,68.46065 z"
       inkscape:connector-curvature="0"
       sodipodi:nodetypes="sssssscsssssscs" />
    <rect
       style="opacity:1;fill:#fff519;fill-opacity:1;fill-rule:nonzero;stroke:#000000;stroke-width:11;stroke-linecap:round;stroke-linejoin:bevel;stroke-miterlimit:4;stroke-dasharray:none;stroke-dashoffset:0;stroke-opacity:1"
       id="rect8076"
       width="149.36873"
       height="41.292068"
       x="412.67279"
       y="140.56749"
       rx="12.406496"
       ry="41.292068" />
    <rect
       style="opacity:1;fill:#fff519;fill-opacity:1;fill-rule:nonzero;stroke:none;stroke-width:11;stroke-linecap:round;stroke-linejoin:bevel;stroke-miterlimit:4;stroke-dasharray:none;stroke-dashoffset:0;stroke-opacity:1"
       id="rect8106"
       width="203.15915"
       height="211.56343"
       x="385.77759"
       y="436.95541"
       rx="33.898567"
       ry="36.142128" />
    <path
       style="fill:#006c06;fill-opacity:1;fill-rule:evenodd;stroke:#000000;stroke-width:2.45808291;stroke-linecap:butt;stroke-linejoin:miter;stroke-miterlimit:4;stroke-dasharray:none;stroke-opacity:1"
       d="m 484.30682,502.64384 -9.51465,-15.4086 -30.62849,-8.41616 c 21.17951,-7.39215 5.31853,-0.89367 33.0538,-0.15246 l 7.76973,13.23931 12.58726,-26.17369 -2.04118,23.15364 22.45295,-9.73124 -19.05098,14.42908 -7.14412,10.40237 z"
       id="path8096"
       inkscape:connector-curvature="0"
       sodipodi:nodetypes="ccccccccccc" />
    <path
       style="opacity:1;fill:#fb0000;fill-opacity:1;fill-rule:nonzero;stroke:#000000;stroke-width:7.35843658;stroke-linecap:round;stroke-linejoin:bevel;stroke-miterlimit:4;stroke-dasharray:none;stroke-dashoffset:0;stroke-opacity:1"
       d="m 556.01497,548.74739 c 0,30.4023 -31.26723,53.70598 -68.99802,53.70598 -37.73079,0 -68.31762,-24.64592 -68.31762,-55.04821 0,-15.13697 7.58226,-28.84696 19.85342,-38.79858 5.86367,-4.7553 19.26167,-3.28349 26.9509,-6.06809 8.53881,-3.09228 16.6478,-0.45032 26.61623,-0.45032 15.86994,0 26.39368,1.34013 37.99149,8.6549 7.14099,4.50382 12.80132,4.7588 17.2542,11.17474 5.50921,7.93797 8.6494,17.08828 8.6494,26.82958 z"
       id="path8093"
       inkscape:connector-curvature="0"
       sodipodi:nodetypes="sssssssss" />
    <rect
       style="opacity:1;fill:#ffffff;fill-opacity:0.42222224;fill-rule:nonzero;stroke:none;stroke-width:11;stroke-linecap:round;stroke-linejoin:bevel;stroke-miterlimit:4;stroke-dasharray:none;stroke-dashoffset:0;stroke-opacity:1"
       id="rect8078"
       width="48.620239"
       height="238.396"
       x="325.78311"
       y="428.40894"
       rx="17.721994"
       ry="19.508537" />
    <rect
       style="opacity:1;fill:#ffffff;fill-opacity:0.42222224;fill-rule:nonzero;stroke:none;stroke-width:11;stroke-linecap:round;stroke-linejoin:bevel;stroke-miterlimit:4;stroke-dasharray:none;stroke-dashoffset:0;stroke-opacity:1"
       id="rect8078-9"
       width="33.786945"
       height="165.66501"
       x="431.84912"
       y="196.07385"
       rx="12.315284"
       ry="13.55678" />
  </g>
</svg>
